<?xml version="1.0" encoding="UTF-8" standalone="no"?>
<!DOCTYPE svg PUBLIC "-//W3C//DTD SVG 1.1//EN" "http://www.w3.org/Graphics/SVG/1.1/DTD/svg11.dtd">
<svg width="100%" height="100%" viewBox="0 0 234 236" version="1.1" xmlns="http://www.w3.org/2000/svg" xmlns:xlink="http://www.w3.org/1999/xlink" xml:space="preserve" xmlns:serif="http://www.serif.com/" style="fill-rule:evenodd;clip-rule:evenodd;stroke-linejoin:round;stroke-miterlimit:2;">
    <g id="Layer_1-2" transform="matrix(0.966231,0,0,0.966231,3.99991,3.99177)">
        <g id="Group_665">
            <g id="Group_636">
                <g id="Group_555">
                    <path id="Path_192" d="M196.3,54.13C197.41,54.13 198.54,54.14 199.68,54.13C206.81,53.93 213.82,55.97 219.73,59.98C225.7,63.98 230.03,69.99 231.95,76.92C233.18,81.44 233.76,86.11 233.65,90.8C233.58,113.86 233.5,136.92 233.67,159.97C233.78,169.97 231.16,179.82 226.11,188.45C220.84,197.7 213.11,205.31 203.77,210.42C199.51,212.68 195,214.43 190.33,215.61C182.66,217.71 174.96,219.72 167.28,221.78C156.5,224.66 145.73,227.59 134.93,230.44C127.9,232.29 120.91,234.35 113.79,235.71C105.51,237.44 96.88,235.99 89.62,231.65C81.74,226.95 77.06,219.88 74.76,211.12C74.64,210.65 74.51,210.17 74.37,209.7C74.27,209.51 74.16,209.34 74.02,209.18C72.87,209.18 71.61,209.24 70.34,209.17C68,209.03 65.65,208.91 63.33,208.58C59.06,207.98 55,206.37 51.48,203.88C46,200.21 41.78,194.94 39.4,188.78C38.8,187.19 38.32,185.55 37.88,183.91C37.44,182.24 37.47,182.19 35.71,182.27C30.4,182.6 25.08,181.77 20.12,179.82C13.14,177.03 7.41,171.78 4.03,165.07C1.32,159.84 -0.07,154.03 0,148.14C0.01,123.48 0.02,98.82 0.01,74.16C0.01,61.65 4.54,50.75 12.16,41.05C18.72,32.44 27.69,25.97 37.93,22.47C42.23,21.02 46.69,20.01 51.08,18.82C59.57,16.51 68.07,14.22 76.57,11.93C82.54,10.33 88.53,8.77 94.51,7.19C102.26,5.14 109.97,2.94 117.76,1.07C127.01,-1.27 136.8,0.26 144.91,5.28C151.96,9.51 156.24,15.9 158.46,23.74C158.7,24.45 158.88,25.19 158.98,25.93C159.08,27.07 159.68,27.24 160.7,27.23C163.05,27.12 165.41,27.18 167.75,27.41C176.05,28.5 183.23,31.82 188.73,38.36C192.32,42.52 194.76,47.55 195.82,52.94C195.86,53.16 195.93,53.38 196.01,53.6C196.1,53.78 196.19,53.95 196.3,54.12M86.8,206.49C86.8,206.74 86.83,206.99 86.86,207.23C88.08,212.67 90.53,217.32 95.4,220.35C99.54,223.17 104.57,224.36 109.53,223.71C113.59,223.08 117.58,221.97 121.57,220.95C129.02,219.04 136.44,217.05 143.87,215.07C149.91,213.46 155.94,211.85 161.98,210.22C167.73,208.68 173.49,207.15 179.23,205.59C183.42,204.44 187.71,203.53 191.78,202.01C201.95,198.21 210.43,190.9 215.68,181.39C219.27,175.25 221.12,168.26 221.04,161.15C220.94,136.91 221.01,112.69 220.98,88.45C220.99,86.75 220.85,85.05 220.57,83.37C219.8,78.11 216.9,73.4 212.56,70.34C208.06,67.22 202.52,65.97 197.11,66.87C193.85,67.4 190.63,68.14 187.46,69.06C178.68,71.34 169.92,73.66 161.16,76C150.06,78.96 138.96,81.94 127.87,84.93C123.51,86.11 119.08,87.12 114.86,88.69C105.3,92.27 98.07,98.79 92.59,107.33C88.29,113.89 86.08,121.61 86.26,129.45C86.34,134.04 86.26,138.62 86.32,143.21C86.44,143.95 85.94,144.65 85.2,144.77C85.17,144.77 85.15,144.77 85.12,144.78C81.7,145.66 78.29,146.59 74.87,147.49C74.48,147.56 74.09,147.6 73.69,147.61C73.65,147.18 73.59,146.9 73.6,146.62C73.61,140.89 73.63,135.16 73.64,129.43C73.54,123.75 74.4,118.1 76.18,112.71C80.91,98.67 90.76,86.93 103.76,79.83C108.87,76.95 114.49,75.51 120.07,73.98C127.43,71.97 134.81,70.07 142.18,68.1C143.88,67.65 145.56,67.13 147.33,66.62L147.33,53.9C151.54,53.15 155.5,51.66 159.89,50.82L159.89,63.37L183.49,57C183.55,56.81 183.59,56.62 183.62,56.43C183.62,56.27 183.62,56.1 183.59,55.94C182.82,51.58 180.6,47.6 177.3,44.65C172.96,40.88 167.24,39.09 161.52,39.72C157.49,40.21 153.51,41.07 149.64,42.29C141.02,44.65 132.37,46.88 123.74,49.19C109.67,52.96 95.61,56.77 81.54,60.53C75.21,62.31 69.38,65.53 64.49,69.93C60.48,73.52 57.1,77.76 54.48,82.46C51.27,87.83 49.57,93.96 49.56,100.22C49.57,117.74 49.57,135.26 49.56,152.78C49.56,153.26 49.51,153.74 49.48,154.29C45.74,155.3 42.08,156.29 38.42,157.27C37.03,157.64 36.82,157.49 36.82,156.01C36.82,137.34 36.84,118.67 36.86,100.01C36.88,98.01 37.04,96.02 37.35,94.05C38.95,84.2 43.17,74.96 49.57,67.31C55.88,59.27 64.35,53.19 73.98,49.77C79.59,47.8 85.41,46.44 91.15,44.87C96.89,43.3 102.66,41.83 108.41,40.29C114.42,38.68 120.41,37.04 126.42,35.42C132.52,33.78 138.63,32.18 144.72,30.53C145.45,30.29 146.16,30.01 146.86,29.68C146.65,28.74 146.51,27.93 146.29,27.16C144.79,21.24 140.49,16.41 134.79,14.23C129.57,12.25 123.83,12.07 118.5,13.72C104.52,17.48 90.56,21.24 76.59,25.01C66.32,27.77 56.05,30.54 45.75,33.23C39.07,34.96 32.9,38.28 27.76,42.9C23.71,46.54 20.27,50.81 17.56,55.54C14.37,60.89 12.67,66.99 12.63,73.21C12.57,98.04 12.57,122.86 12.62,147.68C12.6,148.99 12.67,150.3 12.83,151.6C13.95,159.64 17.98,165.52 25.74,168.44C30.52,170.09 35.68,170.28 40.56,168.97C45.24,167.9 49.84,166.47 54.49,165.23C59.17,163.98 63.86,162.78 68.54,161.53C76.16,159.5 83.77,157.46 91.39,155.4C98.88,153.39 106.34,151.28 113.86,149.38C120.8,147.57 127.19,144.09 132.48,139.25C136.04,136.05 139.09,132.31 141.52,128.18C145.01,122.6 147,116.21 147.28,109.63C147.42,105.34 147.34,101.05 147.36,96.76L147.36,92L159.85,88.66C159.93,89.14 159.99,89.62 160.02,90.1C160.02,95.83 159.96,101.56 159.98,107.29C159.9,117.67 156.86,127.81 151.2,136.52C147.67,142.3 143.08,147.35 137.66,151.4C134.72,153.59 131.62,155.55 128.38,157.25C122.48,160.34 115.97,161.76 109.6,163.52C103.44,165.22 97.27,166.82 91.1,168.48C89.53,168.9 87.97,169.36 86.33,169.82L86.33,182.45L73.59,185.77L73.59,173.1L50.04,179.51C50.01,179.75 50.01,179.99 50.04,180.22C50.99,182.72 51.55,185.48 52.99,187.66C57.32,194.26 63.72,197.03 71.56,196.7C76.6,196.49 81.32,194.88 86.13,193.62C92.24,192.02 98.31,190.31 104.41,188.68C109.97,187.19 115.55,185.75 121.11,184.26C127.84,182.47 134.58,180.66 141.31,178.85C145.6,177.69 149.98,176.73 154.16,175.25C165.94,171.08 174.43,163.07 180.06,152.04C182.75,146.84 184.13,141.06 184.08,135.21C183.97,117.95 184.05,100.69 184.03,83.43C184.03,82.55 184.15,81.94 185.17,81.72C187.31,81.25 189.43,80.71 191.55,80.16C193.15,79.74 194.74,79.27 196.58,78.75C196.66,79.58 196.76,80.21 196.76,80.83C196.77,98.45 196.72,116.07 196.79,133.69C196.83,141.54 195.13,149.3 191.82,156.42C186.82,167.49 178.49,176.73 167.98,182.82C162.58,186 156.63,187.72 150.66,189.35C140.81,192.05 130.92,194.6 121.05,197.23C110.14,200.14 99.23,203.07 88.33,206.01C87.83,206.14 87.34,206.29 86.79,206.44" style="fill:url(#_Linear1);fill-rule:nonzero;"/>
                </g>
            </g>
        </g>
    </g>
    <defs>
        <linearGradient id="_Linear1" x1="0" y1="0" x2="1" y2="0" gradientUnits="userSpaceOnUse" gradientTransform="matrix(-243.69,343.39,-343.39,-243.69,177.1,33.24)"><stop offset="0" style="stop-color:rgb(120,77,252);stop-opacity:1"/><stop offset="1" style="stop-color:rgb(254,87,167);stop-opacity:1"/></linearGradient>
    </defs>
</svg>
