<?xml version="1.0" encoding="UTF-8" standalone="no"?>
<!DOCTYPE svg PUBLIC "-//W3C//DTD SVG 1.1//EN" "http://www.w3.org/Graphics/SVG/1.1/DTD/svg11.dtd">
<svg width="100%" height="100%" viewBox="0 0 99 97" version="1.1" xmlns="http://www.w3.org/2000/svg" xmlns:xlink="http://www.w3.org/1999/xlink" xml:space="preserve" xmlns:serif="http://www.serif.com/" style="fill-rule:evenodd;clip-rule:evenodd;stroke-linejoin:round;stroke-miterlimit:2;">
    <g id="Layer_1-2" transform="matrix(0.952067,0,0,0.952067,-149,2.33196)">
        <g>
            <clipPath id="_clip1">
                <path d="M242.53,14.25C233.74,5.45 221.55,0 208.13,0C194.71,0 182.52,5.45 173.73,14.25C164.93,23.04 159.48,35.23 159.48,48.65C159.48,62.07 164.93,74.26 173.73,83.05C182.52,91.85 194.71,97.3 208.13,97.3C221.55,97.3 233.74,91.85 242.53,83.05C251.33,74.26 256.78,62.07 256.78,48.65C256.78,35.23 251.33,23.04 242.53,14.25ZM236.17,76.69C228.98,83.87 219.09,88.3 208.13,88.3C197.17,88.3 187.28,83.87 180.09,76.69C172.91,69.5 168.48,59.61 168.48,48.65C168.48,37.69 172.91,27.8 180.09,20.61C187.28,13.43 197.17,9 208.13,9C219.09,9 228.98,13.43 236.17,20.61C241.89,26.34 245.85,33.78 247.23,42.11L226.34,42.11C223.66,34.63 216.53,29.26 208.12,29.26C197.41,29.26 188.73,37.94 188.73,48.64C188.73,59.34 197.41,68.02 208.12,68.02C216.53,68.02 223.65,62.66 226.34,55.17L247.23,55.17C245.85,63.5 241.89,70.94 236.17,76.67L236.17,76.69Z"/>
            </clipPath>
            <g clip-path="url(#_clip1)">
                <path d="M168.47,87.8L169.22,88.31L168.47,88.31L168.47,87.8Z" style="fill:rgb(225,85,186);fill-rule:nonzero;"/>
                <path d="M168.47,86.62L170.97,88.31L169.22,88.31L168.47,87.8L168.47,86.62Z" style="fill:rgb(224,85,186);fill-rule:nonzero;"/>
                <path d="M168.47,85.43L172.72,88.31L170.97,88.31L168.47,86.62L168.47,85.43Z" style="fill:rgb(223,85,187);fill-rule:nonzero;"/>
                <path d="M168.47,84.24L174.47,88.31L172.72,88.31L168.47,85.43L168.47,84.24Z" style="fill:rgb(222,85,187);fill-rule:nonzero;"/>
                <path d="M168.47,83.06L176.22,88.31L174.47,88.31L168.47,84.24L168.47,83.06Z" style="fill:rgb(221,85,188);fill-rule:nonzero;"/>
                <path d="M168.47,81.87L177.97,88.31L176.22,88.31L168.47,83.06L168.47,81.87Z" style="fill:rgb(220,84,189);fill-rule:nonzero;"/>
                <path d="M168.47,80.68L179.72,88.31L177.97,88.31L168.47,81.87L168.47,80.68Z" style="fill:rgb(219,84,189);fill-rule:nonzero;"/>
                <path d="M168.47,79.5L181.47,88.31L179.72,88.31L168.47,80.68L168.47,79.5Z" style="fill:rgb(218,84,190);fill-rule:nonzero;"/>
                <path d="M168.47,78.31L183.22,88.31L181.47,88.31L168.47,79.5L168.47,78.31Z" style="fill:rgb(217,84,191);fill-rule:nonzero;"/>
                <path d="M168.47,77.12L184.97,88.31L183.22,88.31L168.47,78.31L168.47,77.12Z" style="fill:rgb(216,84,191);fill-rule:nonzero;"/>
                <path d="M168.47,75.94L186.72,88.31L184.97,88.31L168.47,77.12L168.47,75.94Z" style="fill:rgb(215,84,192);fill-rule:nonzero;"/>
                <path d="M168.47,74.75L188.47,88.31L186.72,88.31L168.47,75.94L168.47,74.75Z" style="fill:rgb(214,84,193);fill-rule:nonzero;"/>
                <path d="M168.47,73.56L190.22,88.31L188.47,88.31L168.47,74.75L168.47,73.56Z" style="fill:rgb(213,84,193);fill-rule:nonzero;"/>
                <path d="M168.47,72.38L191.97,88.31L190.22,88.31L168.47,73.56L168.47,72.38Z" style="fill:rgb(212,84,194);fill-rule:nonzero;"/>
                <path d="M168.47,71.19L193.72,88.31L191.97,88.31L168.47,72.38L168.47,71.19Z" style="fill:rgb(211,84,195);fill-rule:nonzero;"/>
                <path d="M168.47,70L195.47,88.31L193.72,88.31L168.47,71.19L168.47,70Z" style="fill:rgb(210,84,195);fill-rule:nonzero;"/>
                <path d="M168.47,68.82L197.22,88.31L195.47,88.31L168.47,70L168.47,68.82Z" style="fill:rgb(209,84,196);fill-rule:nonzero;"/>
                <path d="M168.47,67.63L198.97,88.31L197.22,88.31L168.47,68.82L168.47,67.63Z" style="fill:rgb(208,84,196);fill-rule:nonzero;"/>
                <path d="M168.47,66.44L200.72,88.31L198.97,88.31L168.47,67.63L168.47,66.44Z" style="fill:rgb(207,83,197);fill-rule:nonzero;"/>
                <path d="M168.47,65.26L202.47,88.31L200.72,88.31L168.47,66.44L168.47,65.26Z" style="fill:rgb(206,83,198);fill-rule:nonzero;"/>
                <path d="M168.47,64.07L204.22,88.31L202.47,88.31L168.47,65.26L168.47,64.07Z" style="fill:rgb(205,83,198);fill-rule:nonzero;"/>
                <path d="M168.47,62.89L205.97,88.31L204.22,88.31L168.47,64.07L168.47,62.89Z" style="fill:rgb(204,83,199);fill-rule:nonzero;"/>
                <path d="M168.47,61.7L207.72,88.31L205.97,88.31L168.47,62.89L168.47,61.7Z" style="fill:rgb(203,83,200);fill-rule:nonzero;"/>
                <path d="M168.47,60.51L209.47,88.31L207.72,88.31L168.47,61.7L168.47,60.51Z" style="fill:rgb(202,83,200);fill-rule:nonzero;"/>
                <path d="M168.47,59.33L211.22,88.31L209.47,88.31L168.47,60.51L168.47,59.33Z" style="fill:rgb(201,83,201);fill-rule:nonzero;"/>
                <path d="M168.47,58.14L212.97,88.31L211.22,88.31L168.47,59.33L168.47,58.14Z" style="fill:rgb(200,83,202);fill-rule:nonzero;"/>
                <path d="M168.47,56.95L214.72,88.31L212.97,88.31L168.47,58.14L168.47,56.95Z" style="fill:rgb(199,83,202);fill-rule:nonzero;"/>
                <path d="M168.47,55.77L216.47,88.31L214.72,88.31L168.47,56.95L168.47,55.77Z" style="fill:rgb(198,83,203);fill-rule:nonzero;"/>
                <path d="M168.47,54.58L218.22,88.31L216.47,88.31L168.47,55.77L168.47,54.58Z" style="fill:rgb(197,83,203);fill-rule:nonzero;"/>
                <path d="M168.47,53.39L219.97,88.31L218.22,88.31L168.47,54.58L168.47,53.39Z" style="fill:rgb(196,83,204);fill-rule:nonzero;"/>
                <path d="M168.47,52.21L221.72,88.31L219.97,88.31L168.47,53.39L168.47,52.21Z" style="fill:rgb(195,83,205);fill-rule:nonzero;"/>
                <path d="M168.47,51.02L223.47,88.31L221.72,88.31L168.47,52.21L168.47,51.02Z" style="fill:rgb(194,82,205);fill-rule:nonzero;"/>
                <path d="M168.47,49.83L225.22,88.31L223.47,88.31L168.47,51.02L168.47,49.83Z" style="fill:rgb(192,82,206);fill-rule:nonzero;"/>
                <path d="M168.47,48.65L226.97,88.31L225.22,88.31L168.47,49.83L168.47,48.65Z" style="fill:rgb(191,82,207);fill-rule:nonzero;"/>
                <path d="M168.47,47.46L228.72,88.31L226.97,88.31L168.47,48.65L168.47,47.46Z" style="fill:rgb(190,82,207);fill-rule:nonzero;"/>
                <path d="M168.47,46.27L230.47,88.31L228.72,88.31L168.47,47.46L168.47,46.27Z" style="fill:rgb(189,82,208);fill-rule:nonzero;"/>
                <path d="M168.47,45.09L232.22,88.31L230.47,88.31L168.47,46.27L168.47,45.09Z" style="fill:rgb(188,82,209);fill-rule:nonzero;"/>
                <path d="M168.47,43.9L233.97,88.31L232.22,88.31L168.47,45.09L168.47,43.9Z" style="fill:rgb(187,82,209);fill-rule:nonzero;"/>
                <path d="M168.47,42.72L235.72,88.31L233.97,88.31L168.47,43.9L168.47,42.72Z" style="fill:rgb(186,82,210);fill-rule:nonzero;"/>
                <path d="M168.47,41.53L237.47,88.31L235.72,88.31L168.47,42.72L168.47,41.53Z" style="fill:rgb(185,82,210);fill-rule:nonzero;"/>
                <path d="M168.47,40.34L239.22,88.31L237.47,88.31L168.47,41.53L168.47,40.34Z" style="fill:rgb(184,82,211);fill-rule:nonzero;"/>
                <path d="M168.47,39.16L240.97,88.31L239.22,88.31L168.47,40.34L168.47,39.16Z" style="fill:rgb(183,82,212);fill-rule:nonzero;"/>
                <path d="M168.47,37.97L242.72,88.31L240.97,88.31L168.47,39.16L168.47,37.97Z" style="fill:rgb(182,82,212);fill-rule:nonzero;"/>
                <path d="M168.47,36.78L244.47,88.31L242.72,88.31L168.47,37.97L168.47,36.78Z" style="fill:rgb(181,82,213);fill-rule:nonzero;"/>
                <path d="M168.47,35.6L246.22,88.31L244.47,88.31L168.47,36.78L168.47,35.6Z" style="fill:rgb(180,82,214);fill-rule:nonzero;"/>
                <path d="M168.47,34.41L247.23,87.8L247.23,88.31L246.22,88.31L168.47,35.6L168.47,34.41Z" style="fill:rgb(179,81,214);fill-rule:nonzero;"/>
                <path d="M168.47,33.22L247.23,86.62L247.23,87.8L168.47,34.41L168.47,33.22Z" style="fill:rgb(178,81,215);fill-rule:nonzero;"/>
                <path d="M168.47,32.04L247.23,85.43L247.23,86.62L168.47,33.22L168.47,32.04Z" style="fill:rgb(177,81,216);fill-rule:nonzero;"/>
                <path d="M168.47,30.85L247.23,84.25L247.23,85.43L168.47,32.04L168.47,30.85Z" style="fill:rgb(176,81,216);fill-rule:nonzero;"/>
                <path d="M168.47,29.66L247.23,83.06L247.23,84.25L168.47,30.85L168.47,29.66Z" style="fill:rgb(175,81,217);fill-rule:nonzero;"/>
                <path d="M168.47,28.48L247.23,81.87L247.23,83.06L168.47,29.66L168.47,28.48Z" style="fill:rgb(174,81,218);fill-rule:nonzero;"/>
                <path d="M168.47,27.29L247.23,80.69L247.23,81.87L168.47,28.48L168.47,27.29Z" style="fill:rgb(173,81,218);fill-rule:nonzero;"/>
                <path d="M168.47,26.1L247.23,79.5L247.23,80.69L168.47,27.29L168.47,26.1Z" style="fill:rgb(172,81,219);fill-rule:nonzero;"/>
                <path d="M168.47,24.92L247.23,78.31L247.23,79.5L168.47,26.1L168.47,24.92Z" style="fill:rgb(171,81,219);fill-rule:nonzero;"/>
                <path d="M168.47,23.73L247.23,77.13L247.23,78.31L168.47,24.92L168.47,23.73Z" style="fill:rgb(170,81,220);fill-rule:nonzero;"/>
                <path d="M168.47,22.55L247.23,75.94L247.23,77.13L168.47,23.73L168.47,22.55Z" style="fill:rgb(169,81,221);fill-rule:nonzero;"/>
                <path d="M168.47,21.36L247.23,74.75L247.23,75.94L168.47,22.55L168.47,21.36Z" style="fill:rgb(168,81,221);fill-rule:nonzero;"/>
                <path d="M168.47,20.17L247.23,73.57L247.23,74.75L168.47,21.36L168.47,20.17Z" style="fill:rgb(167,81,222);fill-rule:nonzero;"/>
                <path d="M168.47,18.99L247.23,72.38L247.23,73.57L168.47,20.17L168.47,18.99Z" style="fill:rgb(166,80,223);fill-rule:nonzero;"/>
                <path d="M168.47,17.8L247.23,71.19L247.23,72.38L168.47,18.99L168.47,17.8Z" style="fill:rgb(165,80,223);fill-rule:nonzero;"/>
                <path d="M168.47,16.61L247.23,70.01L247.23,71.19L168.47,17.8L168.47,16.61Z" style="fill:rgb(164,80,224);fill-rule:nonzero;"/>
                <path d="M168.47,15.43L247.23,68.82L247.23,70.01L168.47,16.61L168.47,15.43Z" style="fill:rgb(163,80,225);fill-rule:nonzero;"/>
                <path d="M168.47,14.24L247.23,67.63L247.23,68.82L168.47,15.43L168.47,14.24Z" style="fill:rgb(162,80,225);fill-rule:nonzero;"/>
                <path d="M168.47,13.05L247.23,66.45L247.23,67.63L168.47,14.24L168.47,13.05Z" style="fill:rgb(161,80,226);fill-rule:nonzero;"/>
                <path d="M168.47,11.87L247.23,65.26L247.23,66.45L168.47,13.05L168.47,11.87Z" style="fill:rgb(160,80,226);fill-rule:nonzero;"/>
                <path d="M168.47,10.68L247.23,64.07L247.23,65.26L168.47,11.87L168.47,10.68Z" style="fill:rgb(159,80,227);fill-rule:nonzero;"/>
                <path d="M168.47,9.49L247.23,62.89L247.23,64.07L168.47,10.68L168.47,9.49Z" style="fill:rgb(158,80,228);fill-rule:nonzero;"/>
                <path d="M169.49,9L247.23,61.7L247.23,62.89L168.47,9.49L168.47,9L169.49,9Z" style="fill:rgb(157,80,228);fill-rule:nonzero;"/>
                <path d="M171.24,9L247.23,60.52L247.23,61.7L169.49,9L171.24,9Z" style="fill:rgb(156,80,229);fill-rule:nonzero;"/>
                <path d="M172.99,9L247.23,59.33L247.23,60.52L171.24,9L172.99,9Z" style="fill:rgb(155,80,230);fill-rule:nonzero;"/>
                <path d="M174.74,9L247.23,58.14L247.23,59.33L172.99,9L174.74,9Z" style="fill:rgb(154,80,230);fill-rule:nonzero;"/>
                <path d="M176.49,9L247.23,56.96L247.23,58.14L174.74,9L176.49,9Z" style="fill:rgb(153,79,231);fill-rule:nonzero;"/>
                <path d="M178.24,9L247.23,55.77L247.23,56.96L176.49,9L178.24,9Z" style="fill:rgb(152,79,232);fill-rule:nonzero;"/>
                <path d="M179.99,9L247.23,54.58L247.23,55.77L178.24,9L179.99,9Z" style="fill:rgb(151,79,232);fill-rule:nonzero;"/>
                <path d="M181.74,9L247.23,53.4L247.23,54.58L179.99,9L181.74,9Z" style="fill:rgb(150,79,233);fill-rule:nonzero;"/>
                <path d="M183.49,9L247.23,52.21L247.23,53.4L181.74,9L183.49,9Z" style="fill:rgb(149,79,233);fill-rule:nonzero;"/>
                <path d="M185.24,9L247.23,51.02L247.23,52.21L183.49,9L185.24,9Z" style="fill:rgb(148,79,234);fill-rule:nonzero;"/>
                <path d="M186.99,9L247.23,49.84L247.23,51.02L185.24,9L186.99,9Z" style="fill:rgb(147,79,235);fill-rule:nonzero;"/>
                <path d="M188.74,9L247.23,48.65L247.23,49.84L186.99,9L188.74,9Z" style="fill:rgb(146,79,235);fill-rule:nonzero;"/>
                <path d="M190.49,9L247.23,47.46L247.23,48.65L188.74,9L190.49,9Z" style="fill:rgb(145,79,236);fill-rule:nonzero;"/>
                <path d="M192.24,9L247.23,46.28L247.23,47.46L190.49,9L192.24,9Z" style="fill:rgb(144,79,237);fill-rule:nonzero;"/>
                <path d="M193.99,9L247.23,45.09L247.23,46.28L192.24,9L193.99,9Z" style="fill:rgb(143,79,237);fill-rule:nonzero;"/>
                <path d="M195.74,9L247.23,43.9L247.23,45.09L193.99,9L195.74,9Z" style="fill:rgb(142,79,238);fill-rule:nonzero;"/>
                <path d="M197.49,9L247.23,42.72L247.23,43.9L195.74,9L197.49,9Z" style="fill:rgb(141,79,239);fill-rule:nonzero;"/>
                <path d="M199.24,9L247.23,41.53L247.23,42.72L197.49,9L199.24,9Z" style="fill:rgb(140,79,239);fill-rule:nonzero;"/>
                <path d="M200.99,9L247.23,40.35L247.23,41.53L199.24,9L200.99,9Z" style="fill:rgb(139,78,240);fill-rule:nonzero;"/>
                <path d="M202.74,9L247.23,39.16L247.23,40.35L200.99,9L202.74,9Z" style="fill:rgb(138,78,241);fill-rule:nonzero;"/>
                <path d="M204.49,9L247.23,37.97L247.23,39.16L202.74,9L204.49,9Z" style="fill:rgb(137,78,241);fill-rule:nonzero;"/>
                <path d="M206.24,9L247.23,36.79L247.23,37.97L204.49,9L206.24,9Z" style="fill:rgb(136,78,242);fill-rule:nonzero;"/>
                <path d="M207.99,9L247.23,35.6L247.23,36.79L206.24,9L207.99,9Z" style="fill:rgb(135,78,242);fill-rule:nonzero;"/>
                <path d="M209.74,9L247.23,34.41L247.23,35.6L207.99,9L209.74,9Z" style="fill:rgb(134,78,243);fill-rule:nonzero;"/>
                <path d="M211.49,9L247.23,33.23L247.23,34.41L209.74,9L211.49,9Z" style="fill:rgb(133,78,244);fill-rule:nonzero;"/>
                <path d="M213.25,9L247.23,32.04L247.23,33.23L211.49,9L213.25,9Z" style="fill:rgb(132,78,244);fill-rule:nonzero;"/>
                <path d="M215,9L247.23,30.85L247.23,32.04L213.25,9L215,9Z" style="fill:rgb(131,78,245);fill-rule:nonzero;"/>
                <path d="M216.75,9L247.23,29.67L247.23,30.85L215,9L216.75,9Z" style="fill:rgb(130,78,246);fill-rule:nonzero;"/>
                <path d="M218.5,9L247.23,28.48L247.23,29.67L216.75,9L218.5,9Z" style="fill:rgb(129,78,246);fill-rule:nonzero;"/>
                <path d="M220.25,9L247.23,27.29L247.23,28.48L218.5,9L220.25,9Z" style="fill:rgb(128,78,247);fill-rule:nonzero;"/>
                <path d="M222,9L247.23,26.11L247.23,27.29L220.25,9L222,9Z" style="fill:rgb(127,78,248);fill-rule:nonzero;"/>
                <path d="M223.75,9L247.23,24.92L247.23,26.11L222,9L223.75,9Z" style="fill:rgb(126,77,248);fill-rule:nonzero;"/>
                <path d="M225.5,9L247.23,23.73L247.23,24.92L223.75,9L225.5,9Z" style="fill:rgb(125,77,249);fill-rule:nonzero;"/>
                <path d="M227.25,9L247.23,22.55L247.23,23.73L225.5,9L227.25,9Z" style="fill:rgb(124,77,249);fill-rule:nonzero;"/>
                <path d="M229,9L247.23,21.36L247.23,22.55L227.25,9L229,9Z" style="fill:rgb(123,77,250);fill-rule:nonzero;"/>
                <path d="M230.75,9L247.23,20.18L247.23,21.36L229,9L230.75,9Z" style="fill:rgb(122,77,251);fill-rule:nonzero;"/>
                <path d="M232.5,9L247.23,18.99L247.23,20.18L230.75,9L232.5,9Z" style="fill:rgb(121,77,251);fill-rule:nonzero;"/>
                <path d="M234.25,9L247.23,17.8L247.23,18.99L232.5,9L234.25,9Z" style="fill:rgb(120,77,252);fill-rule:nonzero;"/>
                <path d="M247.23,17.8L234.25,9L247.23,9L247.23,17.8Z" style="fill:rgb(120,77,252);fill-rule:nonzero;"/>
                <path d="M159.47,97.12L159.75,97.31L159.47,97.31L159.47,97.12Z" style="fill:rgb(238,86,177);fill-rule:nonzero;"/>
                <path d="M159.47,95.94L161.5,97.31L159.75,97.31L159.47,97.12L159.47,95.94Z" style="fill:rgb(237,86,178);fill-rule:nonzero;"/>
                <path d="M159.47,94.75L163.25,97.31L161.5,97.31L159.47,95.94L159.47,94.75Z" style="fill:rgb(236,86,179);fill-rule:nonzero;"/>
                <path d="M159.47,93.56L165,97.31L163.25,97.31L159.47,94.75L159.47,93.56Z" style="fill:rgb(235,86,179);fill-rule:nonzero;"/>
                <path d="M159.47,92.38L166.75,97.31L165,97.31L159.47,93.56L159.47,92.38Z" style="fill:rgb(234,85,180);fill-rule:nonzero;"/>
                <path d="M159.47,91.19L168.5,97.31L166.75,97.31L159.47,92.38L159.47,91.19Z" style="fill:rgb(233,85,180);fill-rule:nonzero;"/>
                <path d="M159.47,90L170.25,97.31L168.5,97.31L159.47,91.19L159.47,90Z" style="fill:rgb(232,85,181);fill-rule:nonzero;"/>
                <path d="M159.47,88.82L172,97.31L170.25,97.31L159.47,90L159.47,88.82Z" style="fill:rgb(231,85,182);fill-rule:nonzero;"/>
                <path d="M159.47,87.63L173.75,97.31L172,97.31L159.47,88.82L159.47,87.63Z" style="fill:rgb(230,85,182);fill-rule:nonzero;"/>
                <path d="M159.47,86.44L175.5,97.31L173.75,97.31L159.47,87.63L159.47,86.44Z" style="fill:rgb(229,85,183);fill-rule:nonzero;"/>
                <path d="M159.47,85.26L177.25,97.31L175.5,97.31L159.47,86.44L159.47,85.26Z" style="fill:rgb(228,85,184);fill-rule:nonzero;"/>
                <path d="M159.47,84.07L179,97.31L177.25,97.31L159.47,85.26L159.47,84.07Z" style="fill:rgb(227,85,184);fill-rule:nonzero;"/>
                <path d="M159.47,82.89L180.75,97.31L179,97.31L159.47,84.07L159.47,82.89Z" style="fill:rgb(226,85,185);fill-rule:nonzero;"/>
                <path d="M159.47,81.7L182.5,97.31L180.75,97.31L159.47,82.89L159.47,81.7Z" style="fill:rgb(225,85,186);fill-rule:nonzero;"/>
                <path d="M159.47,80.51L184.25,97.31L182.5,97.31L159.47,81.7L159.47,80.51Z" style="fill:rgb(224,85,186);fill-rule:nonzero;"/>
                <path d="M159.47,79.33L186,97.31L184.25,97.31L159.47,80.51L159.47,79.33Z" style="fill:rgb(223,85,187);fill-rule:nonzero;"/>
                <path d="M159.47,78.14L187.75,97.31L186,97.31L159.47,79.33L159.47,78.14Z" style="fill:rgb(222,85,187);fill-rule:nonzero;"/>
                <path d="M159.47,76.95L189.5,97.31L187.75,97.31L159.47,78.14L159.47,76.95Z" style="fill:rgb(221,85,188);fill-rule:nonzero;"/>
                <path d="M159.47,75.77L191.25,97.31L189.5,97.31L159.47,76.95L159.47,75.77Z" style="fill:rgb(220,84,189);fill-rule:nonzero;"/>
                <path d="M159.47,74.58L193,97.31L191.25,97.31L159.47,75.77L159.47,74.58Z" style="fill:rgb(219,84,189);fill-rule:nonzero;"/>
                <path d="M159.47,73.39L194.75,97.31L193,97.31L159.47,74.58L159.47,73.39Z" style="fill:rgb(218,84,190);fill-rule:nonzero;"/>
                <path d="M159.47,72.21L196.5,97.31L194.75,97.31L159.47,73.39L159.47,72.21Z" style="fill:rgb(217,84,191);fill-rule:nonzero;"/>
                <path d="M159.47,71.02L198.25,97.31L196.5,97.31L159.47,72.21L159.47,71.02Z" style="fill:rgb(216,84,191);fill-rule:nonzero;"/>
                <path d="M159.47,69.83L200,97.31L198.25,97.31L159.47,71.02L159.47,69.83Z" style="fill:rgb(215,84,192);fill-rule:nonzero;"/>
                <path d="M159.47,68.65L201.75,97.31L200,97.31L159.47,69.83L159.47,68.65Z" style="fill:rgb(214,84,193);fill-rule:nonzero;"/>
                <path d="M159.47,67.46L203.5,97.31L201.75,97.31L159.47,68.65L159.47,67.46Z" style="fill:rgb(213,84,193);fill-rule:nonzero;"/>
                <path d="M159.47,66.27L205.25,97.31L203.5,97.31L159.47,67.46L159.47,66.27Z" style="fill:rgb(212,84,194);fill-rule:nonzero;"/>
                <path d="M159.47,65.09L207,97.31L205.25,97.31L159.47,66.27L159.47,65.09Z" style="fill:rgb(211,84,195);fill-rule:nonzero;"/>
                <path d="M159.47,63.9L208.75,97.31L207,97.31L159.47,65.09L159.47,63.9Z" style="fill:rgb(210,84,195);fill-rule:nonzero;"/>
                <path d="M159.47,62.71L210.5,97.31L208.75,97.31L159.47,63.9L159.47,62.71Z" style="fill:rgb(209,84,196);fill-rule:nonzero;"/>
                <path d="M159.47,61.53L212.25,97.31L210.5,97.31L159.47,62.71L159.47,61.53Z" style="fill:rgb(208,84,196);fill-rule:nonzero;"/>
                <path d="M159.47,60.34L214,97.31L212.25,97.31L159.47,61.53L159.47,60.34Z" style="fill:rgb(207,83,197);fill-rule:nonzero;"/>
                <path d="M159.47,59.16L215.75,97.31L214,97.31L159.47,60.34L159.47,59.16Z" style="fill:rgb(206,83,198);fill-rule:nonzero;"/>
                <path d="M159.47,57.97L217.5,97.31L215.75,97.31L159.47,59.16L159.47,57.97Z" style="fill:rgb(205,83,198);fill-rule:nonzero;"/>
                <path d="M159.47,56.78L219.25,97.31L217.5,97.31L159.47,57.97L159.47,56.78Z" style="fill:rgb(204,83,199);fill-rule:nonzero;"/>
                <path d="M159.47,55.6L221,97.31L219.25,97.31L159.47,56.78L159.47,55.6Z" style="fill:rgb(203,83,200);fill-rule:nonzero;"/>
                <path d="M159.47,54.41L222.75,97.31L221,97.31L159.47,55.6L159.47,54.41Z" style="fill:rgb(202,83,200);fill-rule:nonzero;"/>
                <path d="M159.47,53.22L224.5,97.31L222.75,97.31L159.47,54.41L159.47,53.22Z" style="fill:rgb(201,83,201);fill-rule:nonzero;"/>
                <path d="M159.47,52.04L226.25,97.31L224.5,97.31L159.47,53.22L159.47,52.04Z" style="fill:rgb(200,83,202);fill-rule:nonzero;"/>
                <path d="M159.47,50.85L228,97.31L226.25,97.31L159.47,52.04L159.47,50.85Z" style="fill:rgb(199,83,202);fill-rule:nonzero;"/>
                <path d="M159.47,49.66L229.75,97.31L228,97.31L159.47,50.85L159.47,49.66Z" style="fill:rgb(198,83,203);fill-rule:nonzero;"/>
                <path d="M159.47,48.48L231.5,97.31L229.75,97.31L159.47,49.66L159.47,48.48Z" style="fill:rgb(197,83,203);fill-rule:nonzero;"/>
                <path d="M159.47,47.29L233.25,97.31L231.5,97.31L159.47,48.48L159.47,47.29Z" style="fill:rgb(196,83,204);fill-rule:nonzero;"/>
                <path d="M159.47,46.1L235,97.31L233.25,97.31L159.47,47.29L159.47,46.1Z" style="fill:rgb(195,83,205);fill-rule:nonzero;"/>
                <path d="M159.47,44.92L236.75,97.31L235,97.31L159.47,46.1L159.47,44.92Z" style="fill:rgb(194,82,205);fill-rule:nonzero;"/>
                <path d="M159.47,43.73L238.5,97.31L236.75,97.31L159.47,44.92L159.47,43.73Z" style="fill:rgb(192,82,206);fill-rule:nonzero;"/>
                <path d="M159.47,42.54L240.25,97.31L238.5,97.31L159.47,43.73L159.47,42.54Z" style="fill:rgb(191,82,207);fill-rule:nonzero;"/>
                <path d="M159.47,41.36L242,97.31L240.25,97.31L159.47,42.54L159.47,41.36Z" style="fill:rgb(190,82,207);fill-rule:nonzero;"/>
                <path d="M159.47,40.17L243.75,97.31L242,97.31L159.47,41.36L159.47,40.17Z" style="fill:rgb(189,82,208);fill-rule:nonzero;"/>
                <path d="M159.47,38.99L245.5,97.31L243.75,97.31L159.47,40.17L159.47,38.99Z" style="fill:rgb(188,82,209);fill-rule:nonzero;"/>
                <path d="M159.47,37.8L247.25,97.31L245.5,97.31L159.47,38.99L159.47,37.8Z" style="fill:rgb(187,82,209);fill-rule:nonzero;"/>
                <path d="M159.47,36.61L249,97.31L247.25,97.31L159.47,37.8L159.47,36.61Z" style="fill:rgb(186,82,210);fill-rule:nonzero;"/>
                <path d="M159.47,35.43L250.75,97.31L249,97.31L159.47,36.61L159.47,35.43Z" style="fill:rgb(185,82,210);fill-rule:nonzero;"/>
                <path d="M159.47,34.24L252.5,97.31L250.75,97.31L159.47,35.43L159.47,34.24Z" style="fill:rgb(184,82,211);fill-rule:nonzero;"/>
                <path d="M159.47,33.05L254.25,97.31L252.5,97.31L159.47,34.24L159.47,33.05Z" style="fill:rgb(183,82,212);fill-rule:nonzero;"/>
                <path d="M159.47,31.87L256,97.31L254.25,97.31L159.47,33.05L159.47,31.87Z" style="fill:rgb(182,82,212);fill-rule:nonzero;"/>
                <path d="M159.47,30.68L256.78,96.65L256.78,97.31L256,97.31L159.47,31.87L159.47,30.68Z" style="fill:rgb(181,82,213);fill-rule:nonzero;"/>
                <path d="M159.47,29.49L256.78,95.47L256.78,96.65L159.47,30.68L159.47,29.49Z" style="fill:rgb(180,82,214);fill-rule:nonzero;"/>
                <path d="M159.47,28.31L256.78,94.28L256.78,95.47L159.47,29.49L159.47,28.31Z" style="fill:rgb(179,81,214);fill-rule:nonzero;"/>
                <path d="M159.47,27.12L256.78,93.09L256.78,94.28L159.47,28.31L159.47,27.12Z" style="fill:rgb(178,81,215);fill-rule:nonzero;"/>
                <path d="M159.47,25.93L256.78,91.91L256.78,93.09L159.47,27.12L159.47,25.93Z" style="fill:rgb(177,81,216);fill-rule:nonzero;"/>
                <path d="M159.47,24.75L256.78,90.72L256.78,91.91L159.47,25.93L159.47,24.75Z" style="fill:rgb(176,81,216);fill-rule:nonzero;"/>
                <path d="M159.47,23.56L256.78,89.54L256.78,90.72L159.47,24.75L159.47,23.56Z" style="fill:rgb(175,81,217);fill-rule:nonzero;"/>
                <path d="M159.47,22.37L256.78,88.35L256.78,89.54L159.47,23.56L159.47,22.37Z" style="fill:rgb(174,81,218);fill-rule:nonzero;"/>
                <path d="M159.47,21.19L256.78,87.16L256.78,88.35L159.47,22.37L159.47,21.19Z" style="fill:rgb(173,81,218);fill-rule:nonzero;"/>
                <path d="M159.47,20L256.78,85.98L256.78,87.16L159.47,21.19L159.47,20Z" style="fill:rgb(172,81,219);fill-rule:nonzero;"/>
                <path d="M159.47,18.82L256.78,84.79L256.78,85.98L159.47,20L159.47,18.82Z" style="fill:rgb(171,81,219);fill-rule:nonzero;"/>
                <path d="M159.47,17.63L256.78,83.6L256.78,84.79L159.47,18.82L159.47,17.63Z" style="fill:rgb(170,81,220);fill-rule:nonzero;"/>
                <path d="M159.47,16.44L256.78,82.42L256.78,83.6L159.47,17.63L159.47,16.44Z" style="fill:rgb(169,81,221);fill-rule:nonzero;"/>
                <path d="M159.47,15.26L256.78,81.23L256.78,82.42L159.47,16.44L159.47,15.26Z" style="fill:rgb(168,81,221);fill-rule:nonzero;"/>
                <path d="M159.47,14.07L256.78,80.04L256.78,81.23L159.47,15.26L159.47,14.07Z" style="fill:rgb(167,81,222);fill-rule:nonzero;"/>
                <path d="M159.47,12.88L256.78,78.86L256.78,80.04L159.47,14.07L159.47,12.88Z" style="fill:rgb(166,80,223);fill-rule:nonzero;"/>
                <path d="M159.47,11.7L256.78,77.67L256.78,78.86L159.47,12.88L159.47,11.7Z" style="fill:rgb(165,80,223);fill-rule:nonzero;"/>
                <path d="M159.47,10.51L256.78,76.48L256.78,77.67L159.47,11.7L159.47,10.51Z" style="fill:rgb(164,80,224);fill-rule:nonzero;"/>
                <path d="M159.47,9.32L256.78,75.3L256.78,76.48L159.47,10.51L159.47,9.32Z" style="fill:rgb(163,80,225);fill-rule:nonzero;"/>
                <path d="M159.47,8.14L256.78,74.11L256.78,75.3L159.47,9.32L159.47,8.14Z" style="fill:rgb(162,80,225);fill-rule:nonzero;"/>
                <path d="M159.47,6.95L256.78,72.92L256.78,74.11L159.47,8.14L159.47,6.95Z" style="fill:rgb(161,80,226);fill-rule:nonzero;"/>
                <path d="M159.47,5.76L256.78,71.74L256.78,72.92L159.47,6.95L159.47,5.76Z" style="fill:rgb(160,80,226);fill-rule:nonzero;"/>
                <path d="M159.47,4.58L256.78,70.55L256.78,71.74L159.47,5.76L159.47,4.58Z" style="fill:rgb(159,80,227);fill-rule:nonzero;"/>
                <path d="M159.47,3.39L256.78,69.36L256.78,70.55L159.47,4.58L159.47,3.39Z" style="fill:rgb(158,80,228);fill-rule:nonzero;"/>
                <path d="M159.47,2.2L256.78,68.18L256.78,69.36L159.47,3.39L159.47,2.2Z" style="fill:rgb(157,80,228);fill-rule:nonzero;"/>
                <path d="M159.47,1.02L256.78,66.99L256.78,68.18L159.47,2.2L159.47,1.02Z" style="fill:rgb(156,80,229);fill-rule:nonzero;"/>
                <path d="M159.72,0L256.78,65.81L256.78,66.99L159.47,1.02L159.47,0L159.72,0Z" style="fill:rgb(155,80,230);fill-rule:nonzero;"/>
                <path d="M161.47,0L256.78,64.62L256.78,65.81L159.72,0L161.47,0Z" style="fill:rgb(154,80,230);fill-rule:nonzero;"/>
                <path d="M163.22,0L256.78,63.43L256.78,64.62L161.47,0L163.22,0Z" style="fill:rgb(153,79,231);fill-rule:nonzero;"/>
                <path d="M164.97,0L256.78,62.25L256.78,63.43L163.22,0L164.97,0Z" style="fill:rgb(152,79,232);fill-rule:nonzero;"/>
                <path d="M166.72,0L256.78,61.06L256.78,62.25L164.97,0L166.72,0Z" style="fill:rgb(151,79,232);fill-rule:nonzero;"/>
                <path d="M168.47,0L256.78,59.87L256.78,61.06L166.72,0L168.47,0Z" style="fill:rgb(150,79,233);fill-rule:nonzero;"/>
                <path d="M170.22,0L256.78,58.69L256.78,59.87L168.47,0L170.22,0Z" style="fill:rgb(149,79,233);fill-rule:nonzero;"/>
                <path d="M171.97,0L256.78,57.5L256.78,58.69L170.22,0L171.97,0Z" style="fill:rgb(148,79,234);fill-rule:nonzero;"/>
                <path d="M173.72,0L256.78,56.31L256.78,57.5L171.97,0L173.72,0Z" style="fill:rgb(147,79,235);fill-rule:nonzero;"/>
                <path d="M175.47,0L256.78,55.13L256.78,56.31L173.72,0L175.47,0Z" style="fill:rgb(146,79,235);fill-rule:nonzero;"/>
                <path d="M177.22,0L256.78,53.94L256.78,55.13L175.47,0L177.22,0Z" style="fill:rgb(145,79,236);fill-rule:nonzero;"/>
                <path d="M178.97,0L256.78,52.75L256.78,53.94L177.22,0L178.97,0Z" style="fill:rgb(144,79,237);fill-rule:nonzero;"/>
                <path d="M180.72,0L256.78,51.57L256.78,52.75L178.97,0L180.72,0Z" style="fill:rgb(143,79,237);fill-rule:nonzero;"/>
                <path d="M182.47,0L256.78,50.38L256.78,51.57L180.72,0L182.47,0Z" style="fill:rgb(142,79,238);fill-rule:nonzero;"/>
                <path d="M184.22,0L256.78,49.19L256.78,50.38L182.47,0L184.22,0Z" style="fill:rgb(141,79,239);fill-rule:nonzero;"/>
                <path d="M185.97,0L256.78,48.01L256.78,49.19L184.22,0L185.97,0Z" style="fill:rgb(140,79,239);fill-rule:nonzero;"/>
                <path d="M187.72,0L256.78,46.82L256.78,48.01L185.97,0L187.72,0Z" style="fill:rgb(139,78,240);fill-rule:nonzero;"/>
                <path d="M189.47,0L256.78,45.64L256.78,46.82L187.72,0L189.47,0Z" style="fill:rgb(138,78,241);fill-rule:nonzero;"/>
                <path d="M191.22,0L256.78,44.45L256.78,45.64L189.47,0L191.22,0Z" style="fill:rgb(137,78,241);fill-rule:nonzero;"/>
                <path d="M192.97,0L256.78,43.26L256.78,44.45L191.22,0L192.97,0Z" style="fill:rgb(136,78,242);fill-rule:nonzero;"/>
                <path d="M194.72,0L256.78,42.08L256.78,43.26L192.97,0L194.72,0Z" style="fill:rgb(135,78,242);fill-rule:nonzero;"/>
                <path d="M196.47,0L256.78,40.89L256.78,42.08L194.72,0L196.47,0Z" style="fill:rgb(134,78,243);fill-rule:nonzero;"/>
                <path d="M198.22,0L256.78,39.7L256.78,40.89L196.47,0L198.22,0Z" style="fill:rgb(133,78,244);fill-rule:nonzero;"/>
                <path d="M199.97,0L256.78,38.52L256.78,39.7L198.22,0L199.97,0Z" style="fill:rgb(132,78,244);fill-rule:nonzero;"/>
                <path d="M201.72,0L256.78,37.33L256.78,38.52L199.97,0L201.72,0Z" style="fill:rgb(131,78,245);fill-rule:nonzero;"/>
                <path d="M203.47,0L256.78,36.14L256.78,37.33L201.72,0L203.47,0Z" style="fill:rgb(130,78,246);fill-rule:nonzero;"/>
                <path d="M205.22,0L256.78,34.96L256.78,36.14L203.47,0L205.22,0Z" style="fill:rgb(129,78,246);fill-rule:nonzero;"/>
                <path d="M206.97,0L256.78,33.77L256.78,34.96L205.22,0L206.97,0Z" style="fill:rgb(128,78,247);fill-rule:nonzero;"/>
                <path d="M208.72,0L256.78,32.58L256.78,33.77L206.97,0L208.72,0Z" style="fill:rgb(127,78,248);fill-rule:nonzero;"/>
                <path d="M210.47,0L256.78,31.4L256.78,32.58L208.72,0L210.47,0Z" style="fill:rgb(126,77,248);fill-rule:nonzero;"/>
                <path d="M212.22,0L256.78,30.21L256.78,31.4L210.47,0L212.22,0Z" style="fill:rgb(125,77,249);fill-rule:nonzero;"/>
                <path d="M213.97,0L256.78,29.02L256.78,30.21L212.22,0L213.97,0Z" style="fill:rgb(124,77,249);fill-rule:nonzero;"/>
                <path d="M215.72,0L256.78,27.84L256.78,29.02L213.97,0L215.72,0Z" style="fill:rgb(123,77,250);fill-rule:nonzero;"/>
                <path d="M217.47,0L256.78,26.65L256.78,27.84L215.72,0L217.47,0Z" style="fill:rgb(122,77,251);fill-rule:nonzero;"/>
                <path d="M219.22,0L256.78,25.47L256.78,26.65L217.47,0L219.22,0Z" style="fill:rgb(121,77,251);fill-rule:nonzero;"/>
                <path d="M220.97,0L256.78,24.28L256.78,25.47L219.22,0L220.97,0Z" style="fill:rgb(120,77,252);fill-rule:nonzero;"/>
                <path d="M256.78,24.28L220.97,0L256.78,0L256.78,24.28Z" style="fill:rgb(120,77,252);fill-rule:nonzero;"/>
            </g>
        </g>
    </g>
</svg>
